<?xml version="1.0" encoding="utf-8"?>
<!-- Generator: Adobe Illustrator 26.0.1, SVG Export Plug-In . SVG Version: 6.00 Build 0)  -->
<svg version="1.1" id="Ebene_1" xmlns="http://www.w3.org/2000/svg" xmlns:xlink="http://www.w3.org/1999/xlink" x="0px" y="0px"
	 viewBox="0 0 328 85" style="enable-background:new 0 0 328 85;" xml:space="preserve">
<style type="text/css">
	.st0{fill:#5555FF;}
</style>
<g>
	<g>
		<path class="st0" d="M116.5,53.8c1.8,0,3.7-0.6,5-1.5c0.8-0.5,1.5-1,2.4-1c2.1,0,3.4,1.8,3.4,3.6c0,1.3-0.8,2.3-1.9,3
			c-2.4,1.8-6.1,2.6-9.2,2.6c-9.1,0-16.1-6.7-16.1-17c0-10,6.7-16.9,16.1-16.9c3.1,0,6.7,0.7,9.2,2.5c1.3,0.9,1.9,1.8,1.9,2.9
			c0,1.7-1.2,3.8-3.4,3.8c-0.8,0-1.4-0.4-2.5-1c-1.6-1-3.1-1.5-5-1.5c-5.3,0-8.2,3.8-8.2,9.9C108.3,49.6,111.1,53.8,116.5,53.8z"/>
		<path class="st0" d="M145.5,33.4c-2.2,0-4.2,0.7-6.1,1.6c-1.2,0.7-1.9,1.2-2.8,1.2c-2,0-3.2-2.2-3.2-3.8c0-1.1,0.7-2,2.4-3.1
			c2.9-1.7,6.6-2.6,10.5-2.6c5.3,0,8.5,1.5,10.5,4c1.5,1.8,2.1,4.5,2.1,8V57c0,2.3-0.9,3.4-3.7,3.4c-2.3,0-3.5-0.7-3.5-2.3v-1.3
			c-2.2,2.5-5.3,3.7-9.3,3.7c-6.6,0-10.5-3.7-10.5-9.4c0-6.7,5.5-10.5,19.3-11.5v-0.7C151.2,35.2,149.5,33.4,145.5,33.4z
			 M140.3,50.4c0,2,1.4,3.7,4.8,3.7c2.1,0,4.2-0.7,6.2-2.3v-7.1C143.8,45.6,140.3,47,140.3,50.4z"/>
		<path class="st0" d="M176.1,57.2c0,2.1-1.3,3.2-4,3.2c-2.6,0-4-1.1-4-3.2V13.4c0-2.1,1.3-3.2,4-3.2c2.6,0,4,1.1,4,3.2V57.2z"/>
		<path class="st0" d="M212.2,54.8c0,1.2-0.7,2.2-2.3,3.1c-2.8,1.8-6.2,2.6-10.2,2.6c-10.1,0-16.1-6.4-16.1-16.8s5.9-17.2,15.1-17.2
			c8.6,0,14.3,6.1,14.3,14.5c0,4.6-1.9,5.1-4.7,5.1h-16.9c0.7,4.8,3.4,7.7,8.6,7.7c2.3,0,4.4-0.5,6.1-1.5c1-0.6,1.8-1,2.7-1
			C211.2,51.3,212.2,53.4,212.2,54.8z M191.4,40.4h14c0-4.4-2.3-7.5-6.7-7.5C194.5,32.9,192.1,35.6,191.4,40.4z"/>
		<path class="st0" d="M228,30.2v1.6c2-3,5.4-5,10.2-5c4,0,7.3,1.2,9.4,4.4c1.4,2,2,4.9,2,8.6v17.4c0,2.1-1.3,3.2-3.9,3.2
			c-2.6,0-4-1.1-4-3.2V41.1c0-2-0.3-3.7-1.2-5c-1.1-1.6-2.9-2.3-5.2-2.3c-3.2,0-5.5,1.5-7,3.4v20c0,2.1-1.3,3.2-3.9,3.2
			c-2.6,0-3.9-1.1-3.9-3.2v-27c0-2.1,1.2-3.2,3.8-3.2C227.1,27,228.1,28.3,228,30.2z"/>
		<path class="st0" d="M257.2,36.4c0-5.8,4.5-9.7,12.1-9.7c3.6,0,7.1,0.9,9.6,2.3c1.7,1,2.4,2,2.4,3.3c0,1.5-1.2,3.7-3.3,3.7
			c-0.7,0-1.5-0.4-2.9-1.1c-2-1-4-1.6-6.1-1.6c-2.7,0-4.2,1.1-4.2,2.8c0,5,17,3.1,17,14.5c0,6.1-4.7,9.9-12.4,9.9
			c-3.7,0-7.2-0.9-10.1-2.7c-1.6-1-2.4-2.1-2.4-3.4c0-1.5,1.2-3.7,3.4-3.7c0.8,0,1.4,0.4,2.6,1.1c2.3,1.2,4.1,2,6.6,2
			c2.8,0,4.6-1.2,4.6-3.1C274.1,45.6,257.2,47.6,257.2,36.4z"/>
		<path class="st0" d="M303.6,26.6c10.1,0,16.4,6.7,16.4,17c0,10.5-6.5,17.2-16.5,17.2c-10.1,0-16.4-6.7-16.4-17
			C287.1,33.3,293.6,26.6,303.6,26.6z M303.6,54.3c5,0,8.3-4.1,8.3-10.5c0-6.7-3.3-10.8-8.4-10.8c-5,0-8.3,4.2-8.3,10.6
			C295.2,50.2,298.5,54.3,303.6,54.3z"/>
	</g>
	<path class="st0" d="M77.2,9.9h-0.7V8.1c0-2.1-1.7-3.9-3.9-3.9c-2.1,0-3.9,1.7-3.9,3.9v1.8h-7.3V8.1c0-2.1-1.7-3.9-3.9-3.9
		c-2.1,0-3.9,1.7-3.9,3.9v1.8H38.3V8.1c0-2.1-1.7-3.9-3.9-3.9c-2.1,0-3.9,1.7-3.9,3.9v1.8h-7.3V8.1c0-2.1-1.7-3.9-3.9-3.9
		c-2.1,0-3.9,1.7-3.9,3.9v1.8h-0.7c-4.4,0-8,3.6-8,8v55.4c0,3.4,2.8,6.2,6.2,6.2h47.6c2.6,0,5.2-1,7-2.9l14.6-14.5
		C84,60.2,85,57.7,85,55V17.9C85.2,13.5,81.6,9.9,77.2,9.9z M71.7,36.4L45.1,63c-1.4,1.4-3.3,2.1-5.1,2.1s-3.7-0.7-5.1-2.1
		L20.3,48.5c-2.8-2.8-2.8-7.4,0-10.3c2.8-2.8,7.4-2.8,10.3,0l9.4,9.4l21.5-21.5c2.8-2.8,7.4-2.8,10.3,0C74.5,29,74.5,33.6,71.7,36.4
		z"/>
</g>
</svg>
