<?xml version="1.0" encoding="utf-8"?>
<!-- Generator: Adobe Illustrator 21.0.0, SVG Export Plug-In . SVG Version: 6.00 Build 0)  -->
<svg version="1.1" id="Calque_1" xmlns="http://www.w3.org/2000/svg" xmlns:xlink="http://www.w3.org/1999/xlink" x="0px" y="0px"
	 viewBox="0 0 505.8 193.7" style="enable-background:new 0 0 505.8 193.7;" xml:space="preserve">
<style type="text/css">
	.st0{fill:#1499FF;}
</style>
<g>
	<path class="st0" d="M486,95.9c-7,5.4-15.1,9.6-23.4,12.5c-8.2,2.8-17.9,5.2-23.7-3c11.8-2.6,31.9-10.6,32-25.3
		c0.1-16.2-22.3-17.9-33.2-13.1c-6.4,2.8-11.6,7.8-15,13.8c-1.8,3.1-3.1,6.6-3.9,10.1c-0.4,2-0.7,4-0.8,6c0,1,0.7,4.7,0.3,5.4
		s-4,1.9-4.8,2.4c-1.3,0.8-2.6,1.7-3.9,2.5c-2.9,1.9-6,3.6-9.4,4.5c-3.2,0.9-6.4,1-9.6,0.3c-2.6-0.5-5.8-2.4-8.4-2.4
		c0.3-1.6,1.7-2.5,2.7-3.6c2.1-2.1,4.2-4.2,6.3-6.4c4.3-4.4,8.6-8.9,12.8-13.4c1.9-2,3.6-4.3,5.5-6.2c1.7-1.7,3.6-1.5,5.7-2.7
		c4.5-2.6,2-10.6-3.2-10.6c-4.6,0-9.1,0.7-13.7,0.6c-6.1-0.2-10.9-4.5-16.9-4.7c-5.8-0.2-11.4,2.3-15,6.8c-2.2,2.8-7.6,12.9-4,15.9
		c3.7,3.1,9.5-7.4,12.6-8.5c5.1-1.8,10.1,0.3,14.9,1.9c-13.6,14.4-26.5,31.4-45,39.6c1.7-9,3.6-18,5.5-26.9
		c0.9-4.1,1.8-8.2,2.8-12.3c0.6-2.4,3.2-7.9,1.3-10.1c-4.3-5-15.7,0.6-18.6,4.8c-1.8,2.7-2.4,6.6-3.4,9.7
		c-2.6,8.8-4.2,21.5-12.1,27.1c-2.6,1.8-6.4,2.5-8.9,0.1c-3-2.9-2.2-8.4-1.7-12.1c1.1-8.2,3.6-16.2,6.9-23.7
		c4.1-9.2-7.4-9.6-13.3-6.3c-6.2,3.4-9.7,13.1-11.6,19.5c-1.2,4-2,8-2.3,12.2c-0.2,2.8-1,2.7-3.5,3.9c-1.7,0.8-3.4,1.6-5.1,2.4
		c-2.3,1-7.2,3.5-9.9,2.3c-2.6-1.1-3.7-6.3-3.5-8.8c0.4-7.5,6.3-14.3,10.4-20.1c5.4-7.7,10.8-15.5,15.8-23.5
		c4.5-7.3,8.7-15,11.3-23.2c2.3-7,4.5-17,0.5-23.8c-4.8-8.3-16.4-4.7-22.8-0.5c-7.8,5.1-13.6,12.8-18.4,20.6
		c-10.2,16.7-17.6,37.3-18.1,57c-2.2,0.2-6.2,0.3-8.2-0.9s-1.8-4.5-2.7-6.9c-1.8-5-5.5-9.2-10.2-11.7c-8.3-4.5-18.8-3.5-26.9,0.7
		c-9.5,4.9-16.8,14.2-18.2,24.9c-0.2,1.5-0.3,3-0.3,4.5c0,1,0.7,4.1,0.4,4.9c-0.9,1.8-5.5,3.8-7.2,4.7c-5.3,3.1-11.5,6.2-17.8,5.7
		c-12.9-1.1-12.5-16.6-9.2-25.8c1.6-4.7,4.9-8.9,10-9.9c7.1-1.3,3.4,6.3,4.6,10.4c1.4,4.6,7.8,4,11.1,1.9c4.7-3,6.5-9.6,4.2-14.6
		c-4.4-10-19.1-11.3-28.2-8.7c-5.2,1.5-10,4.4-13.7,8.4c-2,2.1-3.7,4.4-5.2,6.9c-0.5,0.8-0.9,1.6-1.3,2.5c-0.4,0.7-0.7,1.5-1,2.2
		c-0.1,1.2-0.7,1.6-2,1c-0.9,0.1-3.3-0.4-4.1-0.9c-1.6-1-1.3-1.2-1.7-3.1c-0.6-2.5-1.3-4.9-2.6-7.2c-2.6-4.5-6.9-8-11.7-9.7
		C84,58.7,61.9,76.2,62,97.1c0,0.9,0.7,3.8,0.3,4.6s-2.9,2.1-3.7,2.6c-2.5,1.7-5.1,3.2-7.8,4.5c-5.3,2.6-11.8,5.1-17.6,2.7
		c-10.5-4.2-8.4-20.8-3.9-28.6c1.6-2.8,8.1-9,12-6.2c3.5,2.5-1.3,9.6,2.5,12.7c3.5,2.9,9.6,0.3,12.1-2.7c3.8-4.5,3.6-11.2-0.2-15.6
		c-7.8-9.2-23.9-8.1-33.4-2.4c-10.7,6.4-18,20.2-16.6,32.7c1.4,12.6,11.7,21,23.8,22.6c13.3,1.7,25.7-4.1,36-12.1
		c6.6,12,21.5,15,33.7,10.4c5.9-2.2,11-6.2,14.8-11.3c1.8-2.5,3.3-5.3,4.3-8.2c0.4-1.2,0.6-2.8,1.2-4c-0.2-1.4,0.3-2,1.6-1.6
		c0.9-0.1,1.7-0.2,2.6-0.3c-0.8,13.9,9.3,24.7,22.6,26.9c13.6,2.3,26.4-3.6,37-11.8c7.2,12.8,23.8,15.1,36.3,9.1
		c6.1-2.9,11-7.7,14.3-13.6c1.5-2.8,1.9-6.1,3.3-8.8c-0.2-1.5,0.4-2,1.8-1.6c1-0.1,1.9-0.2,2.9-0.4c1.6-0.3,3.2-0.6,4.8-1
		c1,8.3,3.7,17.3,9.5,23.5c6.4,6.8,14.7,5.2,22.9,2.6c3.9-1.2,7.7-2.8,11.4-4.4c2.6-1.2,2.7,0.5,4.7,2.2c1.5,1.3,3.3,2.3,5.2,3.1
		c9.2,3.7,18.7,0.4,26.4-5c-0.6,1.7-1,4.3-2.1,5.8c-1.5,2-5.5,3.6-7.5,5.1c-2.9,2-5.8,4.1-8.6,6.3c-9.3,7.2-19,15.1-25.6,24.9
		c-6.3,9.5-4.4,20,7.9,21.9c11.3,1.8,23.2-1.5,31.7-9.2c9-8.2,14.1-20,17.4-31.5c0.6-2.2,0.9-5.2,1.9-7.3c0.9-1.9,1.1-1.8,3.1-2.8
		c1.4-0.7,2.7-1.4,4-2.1c2.6-1.4,5.1-2.8,7.6-4.3s5.2-3.9,7.9-4.1c1.1-0.1,2.3,0.2,3.5,0.1s2.9-0.8,4.1-0.7c2,0.2,4.4,1.7,6.4,2.4
		c5.4,1.7,10.1,2.9,15.8,2.3c5.8-0.7,11.5-2.2,17-4.3c2.1-0.8,4.2-1.7,6.3-2.8c1.1-0.6,2.1-1.2,3.2-1.8c2.2-1.4,1.9-1.8,3.7,0.1
		c9,9.5,23.6,9.9,35.5,7.2c13.3-3,25.7-10,36.2-18.6L486,95.9z M100.8,104.8c-1.3,2.2-2.7,4-4.4,5.4s-3.4,2.2-5.2,2.2
		c-2.1,0-3.8-0.3-5.3-1s-2.7-1.6-3.6-2.7s-1.6-2.5-2-4s-0.6-3.2-0.6-4.9c0-2.5,0.4-5.2,1.3-7.9c0.8-2.7,2-5.3,3.5-7.5
		c1.5-2.3,3.2-4.1,5.1-5.6c1.1-0.8,2.2-1.4,3.3-1.7c0,2.1,1.1,4.9,4.1,8.5c2.7,3.2,4.9,6.1,7.7,8.2c-0.2,1.3-0.5,2.6-0.9,4
		C103.1,100.2,102.1,102.6,100.8,104.8z M218.6,104.8c-1.3,2.2-2.7,4-4.4,5.4s-3.4,2.2-5.2,2.2c-2.1,0-3.8-0.3-5.3-1
		s-2.7-1.6-3.6-2.7s-1.6-2.5-2-4s-0.6-3.2-0.6-4.9c0-2.5,0.4-5.2,1.3-7.9c0.8-2.7,2-5.3,3.5-7.5c1.5-2.3,3.2-4.1,5.1-5.6
		c1.1-0.8,2.2-1.4,3.3-1.7c0,2.1,1.1,4.9,4.1,8.5c2.7,3.2,4.9,6.1,7.7,8.2c-0.2,1.3-0.5,2.6-0.9,4
		C220.9,100.2,219.8,102.6,218.6,104.8L218.6,104.8z M267.6,62.1c0.7-4.2,1.7-8.3,3-12.3s2.7-7.8,4.3-11.3s3.3-6.6,5.1-9.3
		s3.5-4.8,5.3-6.3c1.8-1.6,3.4-2.3,4.9-2.3c0.4,0,0.7,0.4,0.8,1.3s0.1,1.9,0.1,3.1c-0.5,3.8-1.6,7.9-3.3,12.3s-3.8,8.8-6.2,13.2
		s-4.9,8.7-7.6,12.9s-5.2,7.9-7.6,11.2C266.5,70.4,266.8,66.3,267.6,62.1L267.6,62.1z M320.3,146c-0.7,2.1-1.6,4.3-2.7,6.5
		s-2.3,4.4-3.6,6.5c-1.4,2.1-2.9,4-4.5,5.7c-1.7,1.7-3.5,3-5.5,4s-4.1,1.5-6.3,1.5c-2.1,0-3.2-0.8-3.2-2.3c0-1,0.4-2.2,1.2-3.6
		c0.8-1.5,1.9-3,3.2-4.7s3-3.4,4.8-5.3c1.8-1.8,3.7-3.6,5.8-5.3s4.1-3.3,6.2-4.8s4.2-2.8,6.3-3.9C321.6,142,321,143.9,320.3,146
		L320.3,146z M437.2,91.7c0.1-1.3,0.3-2.6,0.7-4c0.3-1.4,0.8-2.7,1.5-4.1s1.5-2.6,2.6-3.6c1.1-1.1,2.4-1.9,4-2.6s3.5-1,5.8-1
		c1.3,0,2.3,0.6,3.2,1.8s1.3,2.7,1.3,4.6c0,1.3-0.7,2.7-2,4.1s-2.9,2.7-4.9,3.9c-1.9,1.2-4,2.2-6.2,3S438.9,95,437,95
		C437,94.1,437.1,93,437.2,91.7z"/>
	<path class="st0" d="M419.4,146.3c0.7,0,1.2,0.2,1.6,0.6s0.7,0.9,0.7,1.5s-0.2,1.1-0.7,1.5c-0.4,0.4-1,0.6-1.6,0.6
		c-0.7,0-1.2-0.2-1.6-0.6s-0.6-0.9-0.6-1.5s0.2-1.1,0.6-1.5S418.7,146.3,419.4,146.3z"/>
	<path class="st0" d="M439.2,144.3c-0.1,1.3-0.4,2.4-1,3.3c-0.6,1-1.5,1.7-2.6,2.2s-2.4,0.8-3.8,0.8c-2.4,0-4.2-0.8-5.6-2.3
		s-2-3.7-2-6.5v-0.9c0-1.8,0.3-3.3,0.9-4.6s1.5-2.3,2.6-3.1c1.2-0.7,2.5-1.1,4-1.1c2.2,0,3.9,0.6,5.3,1.7c1.3,1.1,2.1,2.7,2.3,4.7
		H435c0-1.1-0.3-1.9-0.8-2.4s-1.3-0.7-2.4-0.7s-1.9,0.4-2.4,1.2s-0.8,2.1-0.8,3.9v1.3c0,1.9,0.2,3.3,0.7,4.1s1.3,1.2,2.5,1.2
		c1,0,1.8-0.2,2.3-0.7s0.8-1.2,0.8-2.2h4.3V144.3z"/>
	<path class="st0" d="M456.5,141.8c0,1.8-0.3,3.3-1,4.7c-0.7,1.3-1.6,2.4-2.8,3.1s-2.6,1.1-4.1,1.1s-2.9-0.4-4.1-1.1s-2.1-1.7-2.8-3
		s-1-2.8-1-4.5v-1c0-1.8,0.3-3.3,1-4.7s1.6-2.4,2.8-3.1s2.6-1.1,4.1-1.1s2.9,0.4,4.1,1.1s2.1,1.8,2.8,3.1s1,2.9,1,4.6V141.8z
		 M452.1,141c0-1.8-0.3-3.1-0.9-4.1c-0.6-0.9-1.5-1.4-2.6-1.4c-2.2,0-3.3,1.6-3.4,4.9v1.3c0,1.8,0.3,3.1,0.9,4.1
		c0.6,0.9,1.5,1.4,2.6,1.4s1.9-0.5,2.5-1.4s0.9-2.3,0.9-4V141z"/>
	<path class="st0" d="M464.4,132.4l4,12.5l4-12.5h5.7v18h-4.3v-4.2l0.4-8.6l-4.3,12.8H467l-4.4-12.8l0.4,8.6v4.2h-4.3v-18H464.4z"/>
</g>
</svg>
