<svg xmlns="http://www.w3.org/2000/svg" xmlns:xlink="http://www.w3.org/1999/xlink" width="1068px" height="323px" viewBox="0 0 1068 323"><title>Logo old</title><g id="Logo-old" stroke="none" stroke-width="1" fill="none" fill-rule="evenodd"><g id="loandrone" transform="translate(46.000000, 34.000000)" fill-rule="nonzero"><g id="Group" fill="#2DB4CF"><path d="M197.522149,68.1855814 C206.062149,65.8355814 212.062149,58.1855814 212.062149,49.3255814 L212.062149,49.2755814 C212.062149,38.5055814 203.332149,29.7755814 192.562149,29.7755814 L192.512149,29.7755814 C183.652149,29.7755814 176.002149,35.7755814 173.652149,44.3155814 C167.282149,67.4655814 146.082149,84.4655814 120.912149,84.4655814 C95.742149,84.4655814 74.542149,67.4655814 68.172149,44.3155814 C65.822149,35.7755814 58.172149,29.7755814 49.312149,29.7755814 L49.262149,29.7755814 C38.492149,29.7755814 29.762149,38.5055814 29.762149,49.2755814 L29.762149,49.3255814 C29.762149,58.1855814 35.762149,65.8355814 44.302149,68.1855814 C67.452149,74.5555814 84.452149,95.7555814 84.452149,120.925581 C84.452149,146.095581 67.452149,167.295581 44.302149,173.665581 C35.762149,176.015581 29.762149,183.665581 29.762149,192.525581 L29.762149,192.575581 C29.762149,203.345581 38.492149,212.075581 49.262149,212.075581 L49.312149,212.075581 C58.172149,212.075581 65.822149,206.075581 68.172149,197.535581 C74.542149,174.385581 95.742149,157.385581 120.912149,157.385581 C146.082149,157.385581 167.282149,174.385581 173.652149,197.535581 C176.002149,206.075581 183.652149,212.075581 192.512149,212.075581 L192.562149,212.075581 C203.332149,212.075581 212.062149,203.345581 212.062149,192.575581 L212.062149,192.525581 C212.062149,183.665581 206.062149,176.015581 197.522149,173.665581 C174.372149,167.295581 157.372149,146.095581 157.372149,120.925581 C157.372149,95.7555814 174.382149,74.5555814 197.522149,68.1855814 Z" id="Path"></path><g transform="translate(0.000000, 0.020073)" id="Path"><path d="M25.512149,11.5355086 L25.512149,11.5355086 C26.792149,12.8155086 28.752149,13.1355086 30.382149,12.3455086 C44.832149,5.36550857 62.742149,7.83550857 74.742149,19.7755086 C76.382149,21.4055086 79.072149,21.5055086 80.742149,19.9155086 C82.472149,18.2655086 82.492149,15.5255086 80.812149,13.8455086 C66.182149,-0.784491428 44.272149,-3.82449143 26.622149,4.74550857 C24.012149,6.00550857 23.462149,9.48550857 25.512149,11.5355086 Z"></path><path d="M4.76214905,26.5755086 C-3.79785095,44.1755086 -0.817850953,66.0055086 13.702149,80.6555086 C15.232149,82.1955086 17.682149,82.5055086 19.402149,81.1855086 C21.492149,79.5855086 21.642149,76.5955086 19.842149,74.7955086 C7.84214905,62.7955086 5.34214905,44.8255086 12.362149,30.3455086 C13.152149,28.7055086 12.852149,26.7455086 11.562149,25.4655086 L11.562149,25.4655086 C9.51214905,23.4155086 6.03214905,23.9655086 4.76214905,26.5755086 Z"></path></g><g transform="translate(159.779375, 159.786499)" id="Path"><path d="M51.6627741,69.6990827 C37.2127741,76.6890827 19.2927741,74.2090827 7.30277413,62.2590827 C5.67277413,60.6390827 2.99277413,60.5390827 1.32277413,62.1190827 C-0.417225869,63.7690827 -0.437225869,66.5190827 1.24277413,68.1990827 C15.8727741,82.8290827 37.7827741,85.8690827 55.4327741,77.2990827 C58.0427741,76.0390827 58.5827741,72.5490827 56.5327741,70.4990827 L56.5327741,70.4990827 C55.2527741,69.2190827 53.3027741,68.9090827 51.6627741,69.6990827 Z"></path><path d="M62.1227741,1.31908266 C60.5327741,2.98908266 60.6327741,5.66908266 62.2627741,7.29908266 C74.2227741,19.3090827 76.6927741,37.2390827 69.6827741,51.6990827 C68.8927741,53.3390827 69.2027741,55.2890827 70.4827741,56.5690827 L70.4827741,56.5690827 C72.5327741,58.6190827 76.0127741,58.0690827 77.2827741,55.4690827 C85.8727741,37.8090827 82.8527741,15.8790827 68.2027741,1.23908266 C66.5127741,-0.440917344 63.7727741,-0.410917344 62.1227741,1.31908266 Z"></path></g><g transform="translate(159.779375, 0.000000)" id="Path"><path d="M69.6827741,30.3755814 C76.6827741,44.8355814 74.2027741,62.7555814 62.2527741,74.7555814 C60.6327741,76.3855814 60.5327741,79.0655814 62.1127741,80.7355814 C63.7627741,82.4755814 66.5127741,82.4955814 68.1927741,80.8155814 C82.8327741,66.1755814 85.8627741,44.2555814 77.2827741,26.6055814 C76.0127741,24.0055814 72.5327741,23.4555814 70.4827741,25.5055814 L70.4827741,25.5055814 C69.2127741,26.7855814 68.8927741,28.7355814 69.6827741,30.3755814 Z"></path><path d="M7.30277413,19.7955814 C19.3027741,7.8455814 37.2327741,5.3655814 51.6827741,12.3655814 C53.3127741,13.1555814 55.2727741,12.8455814 56.5527741,11.5555814 L56.5527741,11.5555814 C58.6027741,9.5055814 58.0527741,6.0255814 55.4527741,4.7555814 C37.8027741,-3.8244186 15.8827741,-0.794418605 1.24277413,13.8455814 C-0.437225869,15.5255814 -0.417225869,18.2755814 1.32277413,19.9255814 C2.99277413,21.5155814 5.67277413,21.4255814 7.30277413,19.7955814 Z"></path></g><g transform="translate(0.006568, 159.792807)" id="Path"><path d="M74.7355814,62.2527741 C62.7355814,74.2027741 44.8055814,76.6827741 30.3555814,69.6827741 C28.7255814,68.8927741 26.7655814,69.2027741 25.4855814,70.4927741 L25.4855814,70.4927741 C23.4355814,72.5427741 23.9855814,76.0227741 26.5855814,77.2927741 C44.2355814,85.8727741 66.1555814,82.8427741 80.7955814,68.2027741 C82.4755814,66.5227741 82.4555814,63.7727741 80.7155814,62.1227741 C79.0455814,60.5327741 76.3755814,60.6327741 74.7355814,62.2527741 Z"></path><path d="M12.3555814,51.6827741 C5.3555814,37.2227741 7.8355814,19.3027741 19.7855814,7.30277413 C21.4055814,5.67277413 21.5055814,2.99277413 19.9255814,1.32277413 C18.2755814,-0.417225869 15.5255814,-0.437225869 13.8455814,1.24277413 C-0.794418605,15.8827741 -3.8244186,37.8027741 4.7555814,55.4527741 C6.0255814,58.0527741 9.5055814,58.6027741 11.5555814,56.5527741 L11.5555814,56.5527741 C12.8355814,55.2627741 13.1455814,53.3127741 12.3555814,51.6827741 Z"></path></g></g><g id="Group" transform="translate(275.312149, 66.505581)" fill="#4B4E4E"><polygon id="Path" stroke="#4B4E4E" stroke-width="2" points="0 0 9.57 0 9.57 103.09 0 103.09"></polygon><path d="M64.67,26.79 C76.13,26.79 85.62,30.94 93.16,39.23 C100.01,46.8 103.43,55.75 103.43,66.1 C103.43,76.49 99.81,85.57 92.58,93.34 C85.34,101.11 76.04,105 64.67,105 C53.26,105 43.93,101.12 36.7,93.34 C29.46,85.57 25.85,76.49 25.85,66.1 C25.85,55.8 29.27,46.87 36.12,39.3 C43.65,30.96 53.17,26.79 64.67,26.79 Z M64.64,36.16 C56.68,36.16 49.84,39.1 44.13,44.98 C38.41,50.86 35.55,57.97 35.55,66.31 C35.55,71.69 36.85,76.7 39.46,81.35 C42.07,86 45.59,89.59 50.02,92.12 C54.45,94.65 59.33,95.91 64.63,95.91 C69.93,95.91 74.8,94.65 79.24,92.12 C83.68,89.59 87.2,86 89.8,81.35 C92.41,76.7 93.71,71.69 93.71,66.31 C93.71,57.97 90.84,50.86 85.1,44.98 C79.36,39.1 72.55,36.16 64.64,36.16 Z" id="Shape" stroke="#4B4E4E" stroke-width="2"></path><path d="M195.24,28.71 L195.24,103.09 L185.81,103.09 L185.81,90.3 C181.8,95.18 177.3,98.84 172.31,101.31 C167.32,103.78 161.86,105 155.94,105 C145.41,105 136.42,101.18 128.97,93.55 C121.52,85.92 117.79,76.63 117.79,65.69 C117.79,54.98 121.55,45.82 129.07,38.21 C136.59,30.6 145.64,26.79 156.21,26.79 C162.32,26.79 167.84,28.09 172.79,30.69 C177.73,33.29 182.08,37.18 185.81,42.38 L185.81,28.71 L195.24,28.71 L195.24,28.71 Z M156.99,36.02 C151.66,36.02 146.75,37.33 142.24,39.95 C137.73,42.57 134.15,46.24 131.49,50.98 C128.83,55.71 127.5,60.72 127.5,66 C127.5,71.24 128.84,76.24 131.53,81.02 C134.21,85.8 137.82,89.52 142.35,92.18 C146.88,94.84 151.74,96.18 156.93,96.18 C162.16,96.18 167.13,94.86 171.82,92.22 C176.51,89.58 180.11,86.01 182.64,81.5 C185.17,76.99 186.43,71.92 186.43,66.27 C186.43,57.67 183.6,50.47 177.93,44.69 C172.25,38.91 165.27,36.02 156.99,36.02 Z" id="Shape" stroke="#4B4E4E" stroke-width="2"></path><path d="M216.77,28.71 L226.34,28.71 L226.34,42.04 C230.17,36.94 234.41,33.12 239.05,30.59 C243.69,28.06 248.76,26.8 254.23,26.8 C259.79,26.8 264.72,28.21 269.03,31.04 C273.34,33.87 276.52,37.67 278.57,42.46 C280.62,47.25 281.65,54.7 281.65,64.81 L281.65,103.09 L272.08,103.09 L272.08,67.6 C272.08,59.03 271.72,53.31 271.02,50.44 C269.91,45.52 267.78,41.82 264.64,39.33 C261.5,36.85 257.39,35.6 252.33,35.6 C246.54,35.6 241.36,37.51 236.78,41.34 C232.2,45.17 229.18,49.91 227.72,55.56 C226.81,59.25 226.35,66 226.35,75.79 L226.35,103.07 L216.78,103.07 L216.78,28.71 L216.77,28.71 Z" id="Path" stroke="#4B4E4E" stroke-width="2"></path><path d="M355.81,0 L374.47,0 L374.47,103.09 L355.81,103.09 L355.81,95.23 C352.17,98.69 348.52,101.19 344.85,102.72 C341.18,104.25 337.21,105.01 332.93,105.01 C323.33,105.01 315.02,101.28 308.01,93.83 C301,86.38 297.5,77.12 297.5,66.04 C297.5,54.56 300.89,45.14 307.67,37.81 C314.45,30.47 322.69,26.8 332.39,26.8 C336.85,26.8 341.04,27.64 344.95,29.33 C348.87,31.02 352.48,33.55 355.81,36.92 L355.81,0 Z M336.2,44.02 C330.43,44.02 325.64,46.06 321.82,50.14 C318,54.22 316.1,59.45 316.1,65.83 C316.1,72.26 318.04,77.54 321.92,81.69 C325.8,85.84 330.58,87.91 336.26,87.91 C342.12,87.91 346.98,85.87 350.84,81.79 C354.7,77.71 356.63,72.37 356.63,65.76 C356.63,59.29 354.7,54.05 350.84,50.04 C346.98,46.02 342.1,44.02 336.2,44.02 Z" id="Shape"></path><path d="M388.97,28.71 L404.97,28.71 L404.97,38.08 C406.7,34.39 409,31.59 411.87,29.67 C414.74,27.75 417.89,26.8 421.3,26.8 C423.72,26.8 426.24,27.44 428.89,28.71 L423.08,44.77 C420.89,43.68 419.09,43.13 417.68,43.13 C414.81,43.13 412.38,44.91 410.4,48.46 C408.42,52.01 407.43,58.99 407.43,69.38 L407.5,73 L407.5,103.08 L388.97,103.08 L388.97,28.71 L388.97,28.71 Z" id="Path"></path><path d="M473.05,26.79 C480.07,26.79 486.66,28.54 492.84,32.05 C499.01,35.56 503.83,40.32 507.3,46.34 C510.76,52.36 512.5,58.85 512.5,65.82 C512.5,72.84 510.76,79.4 507.27,85.51 C503.78,91.62 499.03,96.39 493.02,99.83 C487.01,103.27 480.37,104.99 473.13,104.99 C462.47,104.99 453.36,101.2 445.82,93.61 C438.28,86.02 434.51,76.81 434.51,65.96 C434.51,54.34 438.77,44.65 447.29,36.91 C454.75,30.17 463.34,26.79 473.05,26.79 Z M473.36,44.36 C467.56,44.36 462.73,46.38 458.88,50.41 C455.02,54.44 453.09,59.6 453.09,65.89 C453.09,72.36 455,77.6 458.81,81.61 C462.62,85.62 467.45,87.63 473.29,87.63 C479.13,87.63 484,85.6 487.87,81.55 C491.75,77.49 493.69,72.28 493.69,65.9 C493.69,59.52 491.78,54.34 487.97,50.35 C484.16,46.35 479.29,44.36 473.36,44.36 Z" id="Shape"></path><path d="M527.74,28.71 L546.4,28.71 L546.4,36.33 C550.63,32.76 554.47,30.28 557.9,28.89 C561.33,27.49 564.85,26.8 568.45,26.8 C575.82,26.8 582.08,29.38 587.22,34.52 C591.54,38.9 593.7,45.37 593.7,53.93 L593.7,103.08 L575.24,103.08 L575.24,70.51 C575.24,61.63 574.84,55.74 574.05,52.83 C573.25,49.92 571.87,47.7 569.89,46.17 C567.91,44.64 565.47,43.88 562.56,43.88 C558.79,43.88 555.55,45.14 552.84,47.67 C550.13,50.2 548.26,53.69 547.21,58.15 C546.66,60.47 546.39,65.5 546.39,73.24 L546.39,103.08 L527.73,103.08 L527.73,28.71 L527.74,28.71 Z" id="Path"></path><path d="M686.26,71.29 L626.31,71.29 C627.18,76.58 629.49,80.78 633.25,83.9 C637.01,87.02 641.81,88.58 647.64,88.58 C654.61,88.58 660.6,86.14 665.62,81.27 L681.34,88.65 C677.42,94.21 672.73,98.32 667.26,100.99 C661.79,103.66 655.3,104.99 647.78,104.99 C636.11,104.99 626.61,101.31 619.27,93.95 C611.93,86.59 608.26,77.37 608.26,66.3 C608.26,54.95 611.92,45.53 619.23,38.03 C626.54,30.53 635.72,26.78 646.74,26.78 C658.45,26.78 667.98,30.53 675.31,38.03 C682.65,45.53 686.32,55.43 686.32,67.73 L686.26,71.29 Z M667.6,56.6 C666.37,52.45 663.94,49.08 660.31,46.48 C656.68,43.88 652.47,42.58 647.68,42.58 C642.48,42.58 637.91,44.04 633.99,46.96 C631.53,48.78 629.24,52 627.14,56.6 L667.6,56.6 Z" id="Shape"></path></g></g></g></svg>